<svg width="32" height="32" viewBox="0 0 32 32" fill="none" xmlns="http://www.w3.org/2000/svg">
<rect width="32" height="32" rx="16" fill="#0B1F3B"/>
<path d="M20 9.39336C20 9.29025 19.9617 9.19137 19.8935 9.11846C19.8253 9.04556 19.7328 9.0046 19.6364 9.0046H17.8182C16.9026 8.95584 16.0063 9.29647 15.3249 9.95207C14.6435 10.6077 14.2326 11.5249 14.1818 12.5034V14.6028H12.3636C12.2672 14.6028 12.1747 14.6437 12.1065 14.7166C12.0383 14.7895 12 14.8884 12 14.9915V17.0131C12 17.1162 12.0383 17.2151 12.1065 17.288C12.1747 17.3609 12.2672 17.4018 12.3636 17.4018H14.1818V22.6112C14.1818 22.7143 14.2201 22.8132 14.2883 22.8861C14.3565 22.959 14.449 23 14.5455 23H16.7273C16.8237 23 16.9162 22.959 16.9844 22.8861C17.0526 22.8132 17.0909 22.7143 17.0909 22.6112V17.4018H18.9964C19.0772 17.4031 19.1562 17.3755 19.2207 17.3234C19.2853 17.2713 19.3317 17.1976 19.3527 17.1142L19.8764 15.0926C19.8908 15.0352 19.8928 14.9749 19.882 14.9166C19.8713 14.8582 19.8482 14.8032 19.8145 14.7559C19.7808 14.7086 19.7373 14.6702 19.6875 14.6436C19.6377 14.6171 19.5829 14.6031 19.5273 14.6028H17.0909V12.5034C17.109 12.311 17.1935 12.1327 17.328 12.0033C17.4625 11.8739 17.6373 11.8027 17.8182 11.8037H19.6364C19.7328 11.8037 19.8253 11.7627 19.8935 11.6898C19.9617 11.6169 20 11.518 20 11.4149V9.39336Z" fill="white"/>
</svg>
