<svg width="32" height="32" viewBox="0 0 32 32" fill="none" xmlns="http://www.w3.org/2000/svg">
<rect width="32" height="32" rx="16" fill="#0B1F3B"/>
<path d="M16.0005 11C14.6426 11 14.4721 11.0059 13.9388 11.0302C13.4065 11.0546 13.0432 11.1388 12.7253 11.2625C12.3964 11.3902 12.1174 11.561 11.8395 11.839C11.5614 12.117 11.3905 12.3959 11.2624 12.7247C11.1384 13.0427 11.054 13.4062 11.0301 13.9382C11.0062 14.4716 11 14.6421 11 16C11 17.3579 11.006 17.5278 11.0302 18.0611C11.0547 18.5934 11.139 18.9568 11.2625 19.2747C11.3903 19.6036 11.5612 19.8825 11.8392 20.1604C12.117 20.4386 12.396 20.6098 12.7246 20.7375C13.0428 20.8612 13.4061 20.9454 13.9383 20.9698C14.4717 20.9941 14.642 21 15.9999 21C17.3579 21 17.5278 20.9941 18.0611 20.9698C18.5934 20.9454 18.9571 20.8612 19.2753 20.7375C19.604 20.6098 19.8826 20.4386 20.1604 20.1604C20.4385 19.8825 20.6094 19.6036 20.7375 19.2748C20.8604 18.9568 20.9448 18.5933 20.9698 18.0612C20.9937 17.5279 21 17.3579 21 16C21 14.6421 20.9937 14.4717 20.9698 13.9383C20.9448 13.406 20.8604 13.0427 20.7375 12.7248C20.6094 12.3959 20.4385 12.117 20.1604 11.839C19.8823 11.5609 19.6041 11.3901 19.275 11.2625C18.9563 11.1388 18.5927 11.0545 18.0604 11.0302C17.527 11.0059 17.3572 11 15.9989 11H16.0005ZM15.5519 11.901C15.6851 11.9008 15.8336 11.901 16.0005 11.901C17.3355 11.901 17.4937 11.9058 18.0209 11.9298C18.5084 11.9521 18.773 12.0335 18.9493 12.102C19.1826 12.1926 19.349 12.3009 19.5239 12.476C19.6989 12.651 19.8072 12.8176 19.898 13.051C19.9665 13.227 20.048 13.4916 20.0702 13.9791C20.0942 14.5062 20.0993 14.6645 20.0993 15.9988C20.0993 17.3332 20.0942 17.4916 20.0702 18.0186C20.0479 18.5061 19.9665 18.7707 19.898 18.9468C19.8074 19.1801 19.6989 19.3463 19.5239 19.5212C19.3489 19.6962 19.1827 19.8045 18.9493 19.8951C18.7732 19.9639 18.5084 20.0451 18.0209 20.0674C17.4938 20.0914 17.3355 20.0966 16.0005 20.0966C14.6654 20.0966 14.5071 20.0914 13.98 20.0674C13.4925 20.0449 13.2279 19.9635 13.0515 19.895C12.8182 19.8044 12.6515 19.6961 12.4765 19.5211C12.3015 19.3461 12.1933 19.1798 12.1024 18.9464C12.034 18.7703 11.9524 18.5057 11.9302 18.0182C11.9062 17.4911 11.9014 17.3328 11.9014 15.9976C11.9014 14.6624 11.9062 14.5049 11.9302 13.9778C11.9525 13.4903 12.034 13.2257 12.1024 13.0495C12.1931 12.8161 12.3016 12.6495 12.4766 12.4745C12.6516 12.2995 12.8182 12.1911 13.0516 12.1003C13.2278 12.0316 13.4925 11.9503 13.98 11.9279C14.4413 11.9071 14.6201 11.9008 15.5519 11.8998V11.901ZM18.6695 12.7312C18.3382 12.7312 18.0695 12.9997 18.0695 13.331C18.0695 13.6623 18.3382 13.931 18.6695 13.931C19.0007 13.931 19.2695 13.6623 19.2695 13.331C19.2695 12.9998 19.0007 12.731 18.6695 12.731V12.7312ZM16.0005 13.4323C14.5825 13.4323 13.4327 14.582 13.4327 16C13.4327 17.418 14.5825 18.5672 16.0005 18.5672C17.4185 18.5672 18.5678 17.418 18.5678 16C18.5678 14.582 17.4184 13.4323 16.0004 13.4323H16.0005ZM16.0005 14.3333C16.9209 14.3333 17.6672 15.0795 17.6672 16C17.6672 16.9204 16.9209 17.6667 16.0005 17.6667C15.08 17.6667 14.3338 16.9204 14.3338 16C14.3338 15.0795 15.08 14.3333 16.0005 14.3333Z" fill="white"/>
</svg>
