<svg width="32" height="32" viewBox="0 0 32 32" fill="none" xmlns="http://www.w3.org/2000/svg">
<rect width="32" height="32" rx="16" fill="#0B1F3B"/>
<path d="M13.0986 12.1116C13.0985 12.4063 12.9878 12.6888 12.7909 12.8971C12.594 13.1053 12.3271 13.2222 12.0488 13.2221C11.7705 13.222 11.5037 13.1048 11.307 12.8963C11.1103 12.6878 10.9999 12.4052 11 12.1105C11.0001 11.8158 11.1108 11.5333 11.3077 11.325C11.5046 11.1168 11.7715 10.9999 12.0498 11C12.3281 11.0001 12.595 11.1173 12.7917 11.3258C12.9884 11.5343 13.0988 11.8169 13.0986 12.1116ZM13.1301 14.0448H11.0315V21H13.1301V14.0448ZM16.446 14.0448H14.3578V21H16.425V17.3502C16.425 15.317 18.9276 15.1281 18.9276 17.3502V21H21V16.5947C21 13.1671 17.2959 13.2949 16.425 14.9781L16.446 14.0448Z" fill="white"/>
</svg>
