<svg width="32" height="32" viewBox="0 0 32 32" fill="none" xmlns="http://www.w3.org/2000/svg">
<rect width="32" height="32" rx="16" fill="#0B1F3B"/>
<path d="M21 12.947C20.6255 13.1103 20.2283 13.2175 19.8216 13.265C20.2453 13.0151 20.5705 12.6193 20.7237 12.1477C20.321 12.3829 19.8804 12.5487 19.4209 12.6378C19.0467 12.2453 18.5135 12 17.9234 12C16.7904 12 15.8717 12.9043 15.8717 14.0196C15.8717 14.1779 15.8899 14.332 15.9248 14.4798C14.2198 14.3956 12.708 13.5916 11.6961 12.3697C11.5196 12.668 11.4184 13.0149 11.4184 13.385C11.4184 14.0857 11.7806 14.7038 12.3311 15.066C12.0053 15.056 11.6867 14.9693 11.4018 14.8134C11.4017 14.8218 11.4017 14.8303 11.4017 14.8388C11.4017 15.8173 12.1089 16.6336 13.0474 16.8191C12.7453 16.9 12.4284 16.9118 12.1209 16.8537C12.382 17.6561 13.1396 18.24 14.0374 18.2563C13.3352 18.798 12.4506 19.1208 11.4894 19.1208C11.3238 19.1208 11.1605 19.1113 11 19.0926C11.9079 19.6657 12.9863 20 14.1449 20C17.9186 20 19.9822 16.9226 19.9822 14.2538C19.9822 14.1662 19.9802 14.0791 19.9763 13.9925C20.3779 13.7067 20.7246 13.3526 21 12.947Z" fill="white"/>
</svg>
