<svg width="48" height="45" viewBox="0 0 48 45" fill="none" xmlns="http://www.w3.org/2000/svg">
<path d="M24 0C10.746 0 0 9.94005 0 22.2C0 34.46 10.746 44.4 24 44.4C37.254 44.4 48 34.46 48 22.2C48 9.94005 37.254 0 24 0ZM24 1.443C36.392 1.443 46.438 10.7356 46.438 22.2C46.438 33.6626 36.394 42.9552 24 42.9552C11.606 42.9552 1.562 33.6626 1.562 22.2C1.562 10.7374 11.608 1.443 24 1.443ZM22.644 2.6085C21.984 2.6344 21.324 2.6862 20.66 2.7528L20.446 8.1992C20.9169 8.12549 21.3906 8.06749 21.866 8.0253L22.006 4.3475L21.98 4.09405L22.066 4.33455L23.394 7.0892H24.606L25.934 4.3364L26.014 4.09405L25.994 4.3475L26.134 8.0253C26.598 8.066 27.08 8.1252 27.554 8.1992L27.336 2.7528C26.6766 2.68407 26.0149 2.63594 25.352 2.6085L24.046 5.61475L24 5.83675L23.954 5.61475L22.644 2.6085ZM36.036 5.9829L32.95 10.4747C33.34 10.7522 33.854 11.1611 34.184 11.4404L37.09 10.0455L37.274 9.91785L37.136 10.0917L35.632 12.7798C35.958 13.1036 36.428 13.6271 36.692 13.9453L41.552 11.0889C41.2539 10.7323 40.9472 10.3819 40.632 10.0381L37.554 11.914L37.344 12.0842L37.5 11.8714L38.86 9.36285L37.9 8.47485L35.188 9.73285L34.958 9.87715L35.14 9.68105L37.176 6.8339C36.816 6.5527 36.474 6.29555 36.036 5.9829ZM11 7.00225C10.28 7.0707 9.724 7.5258 8.214 9.0835C7.69039 9.63239 7.18548 10.1963 6.7 10.7744L10.848 14.4133C12.222 13.0073 12.78 12.4857 13.864 11.4293C14.63 10.6801 15.064 9.8198 14.296 8.99285C13.88 8.54515 13.18 8.4471 12.596 8.6691L12.54 8.6876L12.56 8.6395C12.6321 8.39403 12.6245 8.13434 12.5381 7.89285C12.4516 7.65136 12.2902 7.43877 12.074 7.2816C11.9237 7.17198 11.7514 7.09101 11.567 7.04338C11.3827 6.99575 11.19 6.98055 11 7.00225ZM11.012 8.14C11.284 8.07155 11.566 8.251 11.628 8.51C11.692 8.769 11.516 9.0132 11.32 9.2167C10.88 9.6792 9.258 11.248 9.258 11.248L8.454 10.5395C9.288 9.59595 10.176 8.73755 10.578 8.39715C10.6986 8.28085 10.8474 8.19272 11.012 8.14ZM24 9.03355C20.4768 9.03211 17.0783 10.2399 14.4625 12.423C11.8467 14.6062 10.1995 17.6094 9.84 20.8514V20.855C9.614 22.9119 9.91444 24.989 10.717 26.9186C11.5196 28.8481 12.8018 30.5758 14.4599 31.9621C16.1181 33.3484 18.1056 34.3543 20.2619 34.8984C22.4181 35.4426 24.6825 35.5098 26.872 35.0945C30.0814 34.4843 32.9646 32.8679 35.0344 30.5185C37.1042 28.1691 38.2337 25.2307 38.232 22.2C38.2283 18.7098 36.7276 15.3635 34.0593 12.8957C31.3911 10.4279 27.7732 9.04019 24 9.03725V9.03355ZM12.926 9.48125C13.02 9.48125 13.118 9.5053 13.206 9.5608C13.382 9.66995 13.462 9.8568 13.418 10.0418C13.366 10.262 13.168 10.4691 13.008 10.6301L10.918 12.7021L10.078 11.9621C10.078 11.9621 11.652 10.4229 12.168 9.92895C12.372 9.73285 12.504 9.61445 12.644 9.5497C12.7307 9.50805 12.8283 9.48467 12.926 9.48125ZM24 10.7633C25.6242 10.7616 27.2328 11.0563 28.7337 11.6304C30.2346 12.2045 31.5983 13.0469 32.7468 14.1092C33.8952 15.1716 34.8059 16.433 35.4266 17.8213C36.0473 19.2097 36.3658 20.6976 36.364 22.2H24V33.6367C22.3758 33.6384 20.7672 33.3437 19.2663 32.7696C17.7654 32.1955 16.4017 31.3531 15.2532 30.2908C14.1048 29.2284 13.1941 27.967 12.5734 26.5787C11.9527 25.1903 11.6342 23.7024 11.636 22.2H24V10.7633Z" fill="black"/>
</svg>
