<svg width="48" height="48" viewBox="0 0 48 48" fill="none" xmlns="http://www.w3.org/2000/svg">
<path d="M24 0C37.246 0 48 10.754 48 24C48 37.246 37.246 48 24 48C10.754 48 0 37.246 0 24C0 10.754 10.754 0 24 0ZM6.49 35.078C8.35817 38.0319 10.9434 40.465 14.005 42.1509C17.0666 43.8368 20.5049 44.7206 24 44.72C31.362 44.72 37.834 40.872 41.51 35.078L24 28.406L6.49 35.078ZM27.816 21.796L42.35 33.626C43.9113 30.6579 44.7249 27.3537 44.72 24C44.72 12.846 35.886 3.738 24.84 3.296L27.816 21.796ZM23.16 3.296C12.114 3.738 3.28 12.846 3.28 24C3.28 27.474 4.136 30.748 5.65 33.626L20.184 21.796L23.16 3.296Z" fill="black"/>
</svg>
