<svg width="48" height="39" viewBox="0 0 48 39" fill="none" xmlns="http://www.w3.org/2000/svg">
<path d="M41.152 25.351L41.132 25.4045C38.638 32.3712 31.762 37.0431 24.01 37.0431C16.258 37.0431 9.37 32.3617 6.886 25.3969L6.866 25.3414H1.42V25.9706L3.686 26.2249C5.086 26.3779 5.38 26.9708 5.762 27.7166L5.858 27.9002C9.134 34.5838 16.266 38.9 24.018 38.9C31.772 38.9 38.904 34.5838 42.18 27.9097L42.276 27.728C42.656 26.9822 42.952 26.3894 44.352 26.2345L46.62 25.9782V25.351H41.152ZM6.886 13.9859C9.38 7.0192 16.258 2.33968 24.01 2.33968C31.762 2.33968 38.648 7.0192 41.134 13.9859L41.154 14.0394H46.61V13.4122L44.342 13.1578C42.942 13.0029 42.648 12.412 42.266 11.6643L42.172 11.4807C38.896 4.81618 31.76 0.5 24.01 0.5C16.248 0.5 9.124 4.81618 5.848 11.4998L5.752 11.6815C5.372 12.4273 5.076 13.0202 3.676 13.1751L1.41 13.4294V14.0586H6.858L6.886 13.9859ZM34.61 17.0189L31.124 22.3639H32.628L33.248 21.4077H37.314L37.934 22.3639H39.428L35.942 17.0189H34.61ZM36.676 20.3961H33.886L35.286 18.2466L36.676 20.3961ZM42.296 18.3575L46.438 22.3639H48V17.0189H46.772V21.0061L42.648 17.0189H41.058V22.3639H42.296V18.3575ZM0 22.3639H1.238V18.3575L5.39 22.3639H6.952V17.0189H5.714V21.0061L1.59 17.0189H0V22.3639ZM9.686 17.0189H10.924V22.3639H9.684L9.686 17.0189ZM18.658 21.2337C18.618 21.2433 18.466 21.2433 18.41 21.2433H13.486V22.3371H18.486C18.524 22.3371 18.82 22.3371 18.876 22.3276C19.896 22.2358 20.362 21.4249 20.362 20.7155C20.362 19.9869 19.876 19.2047 18.952 19.1225C18.772 19.1033 18.62 19.1033 18.552 19.1033H15.286C15.1647 19.1071 15.0433 19.0981 14.924 19.0766C14.666 19.0116 14.572 18.7935 14.572 18.6119C14.572 18.4474 14.666 18.2294 14.932 18.1567C15.045 18.1339 15.1606 18.1249 15.276 18.13H19.99V17.0552H15.2C15 17.0552 14.848 17.0629 14.724 17.082C14.3338 17.1279 13.9755 17.3109 13.7186 17.5954C13.4617 17.88 13.3246 18.2457 13.334 18.6214C13.334 19.2774 13.762 20.0423 14.704 20.1704C14.876 20.1876 15.114 20.1876 15.22 20.1876H18.4C18.458 20.1876 18.6 20.1876 18.628 20.1972C18.99 20.2412 19.114 20.4974 19.114 20.725C19.1171 20.8487 19.0722 20.969 18.988 21.063C18.9038 21.1569 18.7863 21.2177 18.658 21.2337ZM27.972 21.2337C27.932 21.2433 27.78 21.2433 27.714 21.2433H22.8V22.3371H27.8C27.838 22.3371 28.134 22.3371 28.19 22.3276C29.21 22.2358 29.676 21.4249 29.676 20.7155C29.676 19.9869 29.19 19.2047 28.266 19.1225C28.086 19.1033 27.934 19.1033 27.866 19.1033H24.6C24.4787 19.1071 24.3573 19.0981 24.238 19.0766C23.98 19.0116 23.886 18.7935 23.886 18.6119C23.886 18.4474 23.98 18.2294 24.246 18.1567C24.359 18.1339 24.4746 18.1249 24.59 18.13H29.304V17.0552H24.514C24.314 17.0552 24.162 17.0629 24.038 17.082C23.6478 17.1279 23.2895 17.3109 23.0326 17.5954C22.7757 17.88 22.6386 18.2457 22.648 18.6214C22.648 19.2774 23.076 20.0423 24.02 20.1704C24.19 20.1876 24.428 20.1876 24.534 20.1876H27.714C27.772 20.1876 27.914 20.1876 27.942 20.1972C28.304 20.2412 28.428 20.4974 28.428 20.725C28.4289 20.8481 28.3832 20.9674 28.2995 21.0609C28.2157 21.1543 28.0994 21.2157 27.972 21.2337Z" fill="black"/>
</svg>
