<svg width="48" height="43" viewBox="0 0 48 43" fill="none" xmlns="http://www.w3.org/2000/svg">
<path d="M24 0C10.446 0 0 8.90925 0 21.0517C0 33.1941 10.448 42.1033 24 42.1033C37.552 42.1033 48 33.1941 48 21.0517C48 8.90925 37.554 0 24 0ZM38.668 9.9138C38.668 12.7028 35.218 14.8539 29.692 15.7138C29.172 9.05128 27.682 4.6638 25.766 3.02656C31.662 3.50172 38.668 6.19516 38.668 9.9138ZM24 32.4168C22.08 32.4168 20.508 28.5432 20.384 21.0826C21.538 21.204 22.744 21.2686 24 21.2686C25.256 21.2686 26.46 21.204 27.614 21.0826C27.492 28.5457 25.92 32.4168 24 32.4168ZM24 16.127C22.82 16.127 21.69 16.078 20.62 15.9876C21.142 11.5252 22.46 7.85305 24 7.85305C25.54 7.85305 26.856 11.5252 27.378 15.9876C26.308 16.0754 25.18 16.127 24 16.127ZM22.236 3.0214C20.324 4.65605 18.824 9.04611 18.308 15.7138C12.782 14.8539 9.33 12.7028 9.33 9.9138C9.33 6.19516 16.338 3.48365 22.236 3.0214ZM4.074 20.2253C4.06895 17.2805 4.80449 14.4132 6.17 12.0546C6.71 16.0496 11.214 19.4945 18.114 20.7573V21.0517C18.114 30.7924 19.872 37.0702 22.288 39.0509C12.074 38.222 4.074 30.0642 4.074 20.2253ZM25.72 39.0509C28.134 37.0702 29.894 30.7924 29.894 21.0517V20.7547C36.788 19.4945 41.302 16.0392 41.838 12.052C43.2053 14.4106 43.9416 17.2792 43.936 20.2253C43.928 30.0642 35.922 38.222 25.72 39.0509Z" fill="black"/>
</svg>
