<svg width="48" height="48" viewBox="0 0 48 48" fill="none" xmlns="http://www.w3.org/2000/svg">
<rect width="48" height="48" fill="#4BC3CC"/>
<path d="M40.53 37.5682H38.37V8.21591C38.37 8.02604 38.2941 7.84394 38.1591 7.70969C38.0241 7.57543 37.841 7.5 37.65 7.5H27.57C27.379 7.5 27.1959 7.57543 27.0609 7.70969C26.9259 7.84394 26.85 8.02604 26.85 8.21591V16.0909H17.49C17.299 16.0909 17.1159 16.1663 16.9809 16.3006C16.8459 16.4349 16.77 16.6169 16.77 16.8068V24.6818H8.85C8.65904 24.6818 8.47591 24.7572 8.34088 24.8915C8.20586 25.0258 8.13 25.2079 8.13 25.3977V37.5682H5.97C5.77904 37.5682 5.59591 37.6436 5.46088 37.7779C5.32586 37.9121 5.25 38.0942 5.25 38.2841C5.25 38.474 5.32586 38.6561 5.46088 38.7903C5.59591 38.9246 5.77904 39 5.97 39H40.53C40.721 39 40.9041 38.9246 41.0391 38.7903C41.1741 38.6561 41.25 38.474 41.25 38.2841C41.25 38.0942 41.1741 37.9121 41.0391 37.7779C40.9041 37.6436 40.721 37.5682 40.53 37.5682ZM28.29 8.93182H36.93V37.5682H28.29V8.93182ZM18.21 17.5227H26.85V37.5682H18.21V17.5227ZM9.57 26.1136H16.77V37.5682H9.57V26.1136Z" fill="white"/>
</svg>
