<svg width="32" height="32" viewBox="0 0 32 32" fill="none" xmlns="http://www.w3.org/2000/svg">
<rect width="32" height="32" rx="16" fill="url(#paint0_linear_109_98)"/>
<path d="M10.26 8.32H21.38C21.8067 8.32 22.12 8.37333 22.32 8.48C22.52 8.57333 22.6533 8.72667 22.72 8.94C22.7867 9.15333 22.82 9.43333 22.82 9.78C22.82 10.1267 22.7867 10.4067 22.72 10.62C22.6533 10.82 22.54 10.96 22.38 11.04C22.14 11.16 21.8 11.22 21.36 11.22H17.54V21.28C17.54 21.5867 17.5267 21.8133 17.5 21.96C17.4867 22.1067 17.4267 22.28 17.32 22.48C17.2267 22.6667 17.0533 22.8 16.8 22.88C16.5467 22.96 16.2133 23 15.8 23C15.3867 23 15.0533 22.96 14.8 22.88C14.56 22.8 14.3867 22.6667 14.28 22.48C14.1867 22.28 14.1267 22.1067 14.1 21.96C14.0867 21.8 14.08 21.5667 14.08 21.26V11.22H10.24C9.81333 11.22 9.5 11.1733 9.3 11.08C9.1 10.9733 8.96667 10.8133 8.9 10.6C8.83333 10.3867 8.8 10.1067 8.8 9.76C8.8 9.41333 8.83333 9.14 8.9 8.94C8.96667 8.72667 9.08 8.58 9.24 8.5C9.48 8.38 9.82 8.32 10.26 8.32Z" fill="white"/>
<defs>
<linearGradient id="paint0_linear_109_98" x1="-2.67907" y1="32" x2="32" y2="32" gradientUnits="userSpaceOnUse">
<stop stop-color="#2C7AED"/>
<stop offset="1" stop-color="#4BC3CC"/>
</linearGradient>
</defs>
</svg>
