<svg width="64" height="64" viewBox="0 0 64 64" fill="none" xmlns="http://www.w3.org/2000/svg">
<rect width="64" height="64" fill="#2C7AED"/>
<path d="M36.689 13.3405C35.2948 12.4658 33.6651 12 31.9993 12C30.3335 12 28.7039 12.4658 27.3096 13.3405L8.77697 24.9627C8.51334 25.1279 8.30221 25.3595 8.16675 25.6323C8.03129 25.905 7.97673 26.2083 8.00906 26.5088C8.00396 26.5635 8.00167 26.6184 8.0022 26.6733V39.8317C8.0022 40.268 8.18279 40.6863 8.50425 40.9948C8.8257 41.3032 9.26168 41.4765 9.71628 41.4765C10.1709 41.4765 10.6069 41.3032 10.9283 40.9948C11.2498 40.6863 11.4304 40.268 11.4304 39.8317V29.4399L14.8585 31.6669V43.7727C14.8585 44.1647 15.0044 44.5439 15.2699 44.8418L15.2768 44.8517L15.2973 44.8747L15.3659 44.9471L15.599 45.1905C15.8013 45.3945 16.0927 45.6774 16.4698 46.0129C17.224 46.6807 18.3312 47.5623 19.7574 48.4472C22.6027 50.2105 26.7817 52 31.9993 52C37.217 52 41.3925 50.2105 44.2413 48.4472C45.6674 47.5623 46.7747 46.6807 47.5289 46.0129C47.9122 45.6726 48.2805 45.317 48.6327 44.9471L48.7013 44.8747L48.7219 44.8517L48.7287 44.8451L48.7322 44.8385C48.9942 44.5427 49.1387 44.1675 49.1401 43.7793V31.6669L55.2422 27.7029C55.4884 27.5633 55.6893 27.3608 55.8225 27.118C55.9556 26.8752 56.0159 26.6016 55.9964 26.3279C55.9942 26.0564 55.922 25.7896 55.7862 25.5514C55.6504 25.3132 55.4553 25.1109 55.2182 24.9627L36.689 13.3405ZM45.7119 33.8973V43.1279C44.6963 44.0878 43.5809 44.9454 42.3832 45.6872C39.9149 47.2103 36.3805 48.7137 31.9993 48.7137C27.6181 48.7137 24.0803 47.2103 21.6154 45.6872C20.4175 44.9444 19.3021 44.0857 18.2867 43.1246V33.8973L27.1965 39.6837C28.6144 40.6044 30.2873 41.0964 31.9993 41.0964C33.7114 41.0964 35.3842 40.6044 36.8022 39.6837L45.7119 33.894V33.8973ZM29.1848 16.0939C30.0215 15.5688 30.9996 15.2892 31.9993 15.2892C32.9991 15.2892 33.9771 15.5688 34.8138 16.0939L51.1867 26.341L34.8824 36.9599C34.0313 37.5129 33.0271 37.8084 31.9993 37.8084C30.9715 37.8084 29.9673 37.5129 29.1162 36.9599L12.8085 26.3674L29.1848 16.0939Z" fill="white"/>
</svg>
