<svg width="48" height="48" viewBox="0 0 48 48" fill="none" xmlns="http://www.w3.org/2000/svg">
<rect width="48" height="48" fill="#2C7AED"/>
<path d="M24 8.25C23.1049 8.25 22.2464 8.60558 21.6135 9.23851C20.9806 9.87145 20.625 10.7299 20.625 11.625C20.625 12.5201 20.9806 13.3786 21.6135 14.0115C22.2464 14.6444 23.1049 15 24 15C24.8951 15 25.7536 14.6444 26.3865 14.0115C27.0194 13.3786 27.375 12.5201 27.375 11.625C27.375 10.7299 27.0194 9.87145 26.3865 9.23851C25.7536 8.60558 24.8951 8.25 24 8.25ZM18.375 11.625C18.375 10.1332 18.9676 8.70242 20.0225 7.64752C21.0774 6.59263 22.5082 6 24 6C25.4918 6 26.9226 6.59263 27.9775 7.64752C29.0324 8.70242 29.625 10.1332 29.625 11.625C29.625 13.1168 29.0324 14.5476 27.9775 15.6025C26.9226 16.6574 25.4918 17.25 24 17.25C22.5082 17.25 21.0774 16.6574 20.0225 15.6025C18.9676 14.5476 18.375 13.1168 18.375 11.625ZM36.375 10.5C35.7783 10.5 35.206 10.7371 34.784 11.159C34.3621 11.581 34.125 12.1533 34.125 12.75C34.125 13.3467 34.3621 13.919 34.784 14.341C35.206 14.7629 35.7783 15 36.375 15C36.9717 15 37.544 14.7629 37.966 14.341C38.3879 13.919 38.625 13.3467 38.625 12.75C38.625 12.1533 38.3879 11.581 37.966 11.159C37.544 10.7371 36.9717 10.5 36.375 10.5ZM31.875 12.75C31.875 11.5565 32.3491 10.4119 33.193 9.56802C34.0369 8.72411 35.1815 8.25 36.375 8.25C37.5685 8.25 38.7131 8.72411 39.557 9.56802C40.4009 10.4119 40.875 11.5565 40.875 12.75C40.875 13.9435 40.4009 15.0881 39.557 15.932C38.7131 16.7759 37.5685 17.25 36.375 17.25C35.1815 17.25 34.0369 16.7759 33.193 15.932C32.3491 15.0881 31.875 13.9435 31.875 12.75ZM9.375 12.75C9.375 12.1533 9.61205 11.581 10.034 11.159C10.456 10.7371 11.0283 10.5 11.625 10.5C12.2217 10.5 12.794 10.7371 13.216 11.159C13.6379 11.581 13.875 12.1533 13.875 12.75C13.875 13.3467 13.6379 13.919 13.216 14.341C12.794 14.7629 12.2217 15 11.625 15C11.0283 15 10.456 14.7629 10.034 14.341C9.61205 13.919 9.375 13.3467 9.375 12.75ZM11.625 8.25C10.4315 8.25 9.28693 8.72411 8.44302 9.56802C7.59911 10.4119 7.125 11.5565 7.125 12.75C7.125 13.9435 7.59911 15.0881 8.44302 15.932C9.28693 16.7759 10.4315 17.25 11.625 17.25C12.8185 17.25 13.9631 16.7759 14.807 15.932C15.6509 15.0881 16.125 13.9435 16.125 12.75C16.125 11.5565 15.6509 10.4119 14.807 9.56802C13.9631 8.72411 12.8185 8.25 11.625 8.25ZM12.975 35.2455C12.3658 35.276 11.7567 35.1823 11.1848 34.9702C10.6129 34.758 10.0901 34.4318 9.64818 34.0113C9.20625 33.5908 8.85442 33.0849 8.61407 32.5243C8.37371 31.9636 8.24985 31.36 8.25 30.75V22.3125C8.25 22.1633 8.30926 22.0202 8.41475 21.9148C8.52024 21.8093 8.66332 21.75 8.8125 21.75H12.7815C12.8715 20.9242 13.164 20.157 13.6028 19.5H8.8125C7.26 19.5 6 20.76 6 22.3125V30.75C5.9999 31.7133 6.20596 32.6654 6.60435 33.5424C7.00275 34.4194 7.58423 35.201 8.30975 35.8347C9.03526 36.4684 9.88799 36.9394 10.8106 37.2161C11.7333 37.4929 12.7045 37.569 13.659 37.4392C13.3562 36.7335 13.127 35.9983 12.975 35.2455ZM34.341 37.4392C35.2955 37.569 36.2667 37.4929 37.1894 37.2161C38.112 36.9394 38.9647 36.4684 39.6903 35.8347C40.4158 35.201 40.9973 34.4194 41.3956 33.5424C41.794 32.6654 42.0001 31.7133 42 30.75V22.3125C42 20.76 40.74 19.5 39.1875 19.5H34.3973C34.8383 20.157 35.1285 20.9242 35.2185 21.75H39.1875C39.3367 21.75 39.4798 21.8093 39.5852 21.9148C39.6907 22.0202 39.75 22.1633 39.75 22.3125V30.75C39.7502 31.36 39.6263 31.9636 39.3859 32.5243C39.1456 33.0849 38.7937 33.5908 38.3518 34.0113C37.9099 34.4318 37.3871 34.758 36.8152 34.9702C36.2433 35.1823 35.6342 35.276 35.025 35.2455C34.873 35.9983 34.6438 36.7334 34.341 37.4392ZM17.8125 19.5C16.26 19.5 15 20.76 15 22.3125V33C15 35.3869 15.9482 37.6761 17.636 39.364C19.3239 41.0518 21.6131 42 24 42C26.3869 42 28.6761 41.0518 30.364 39.364C32.0518 37.6761 33 35.3869 33 33V22.3125C33 20.76 31.74 19.5 30.1875 19.5H17.8125ZM17.25 22.3125C17.25 22.1633 17.3093 22.0202 17.4148 21.9148C17.5202 21.8093 17.6633 21.75 17.8125 21.75H30.1875C30.3367 21.75 30.4798 21.8093 30.5852 21.9148C30.6907 22.0202 30.75 22.1633 30.75 22.3125V33C30.75 34.7902 30.0388 36.5071 28.773 37.773C27.5071 39.0388 25.7902 39.75 24 39.75C22.2098 39.75 20.4929 39.0388 19.227 37.773C17.9612 36.5071 17.25 34.7902 17.25 33V22.3125Z" fill="white"/>
</svg>
